# Blender v2.79 (sub 7) OBJ File: "testCha'r.range"
# www.blender.org
mtllib chair.mtl
o Cube_Cube.002
v -1.000000 1.933005 1.000000
v -1.000000 2.263308 1.000000
v -1.000000 1.933005 -1.000000
v -1.000000 2.263308 -1.000000
v 1.000000 1.933005 1.000000
v 1.000000 2.263308 1.000000
v 1.000000 1.933005 -1.000000
v 1.000000 2.263308 -1.000000
v -0.803949 1.933005 -1.000000
v 0.777844 1.933005 -1.000000
v 0.777844 2.263308 -1.000000
v -0.803949 2.263308 -1.000000
v 0.777844 1.933005 1.000000
v -0.803949 1.933005 1.000000
v -0.803949 2.263308 1.000000
v 0.777844 2.263308 1.000000
v 1.000000 2.263308 -0.764615
v 1.000000 2.263308 0.764615
v 1.000000 1.933005 -0.764615
v 1.000000 1.933005 0.764615
v -1.000000 2.263308 -0.764615
v -1.000000 2.263308 0.764615
v -1.000000 1.933005 0.764615
v -1.000000 1.933005 -0.764615
v -0.803949 2.263308 0.764615
v -0.803949 2.263308 -0.764615
v 0.777844 2.263308 0.764615
v 0.777844 2.263308 -0.764615
v 0.777844 1.933005 0.764615
v 0.777844 1.933005 -0.764615
v -0.803949 1.933005 0.764615
v -0.803949 1.933005 -0.764615
v -0.803949 -0.045122 -1.000000
v -1.000000 -0.045122 -1.000000
v 0.777844 -0.045122 -1.000000
v 1.000000 -0.045122 -1.000000
v 1.000000 -0.045122 1.000000
v 0.777844 -0.045122 1.000000
v -0.803949 -0.045122 1.000000
v -1.000000 -0.045122 1.000000
v 1.000000 -0.045122 0.764615
v 0.777844 -0.045122 0.764615
v 0.777844 -0.045122 -0.764615
v 1.000000 -0.045122 -0.764615
v -0.803949 -0.045122 0.764615
v -1.000000 -0.045122 0.764615
v -1.000000 -0.045122 -0.764615
v -0.803949 -0.045122 -0.764615
v -0.969732 4.318585 -0.963659
v -0.834217 4.318585 -0.963659
v 0.812142 4.318585 -0.963659
v 0.965701 4.318585 -0.963659
v -0.834217 4.318585 -0.800956
v -0.969732 4.318585 -0.800956
v 0.965701 4.318585 -0.800956
v 0.812142 4.318585 -0.800956
v -1.000000 2.661650 -0.594487
v -1.000000 4.172341 -0.594487
v -0.803949 4.172341 -0.594487
v -0.803949 2.661650 -0.594487
v -0.803949 4.172341 -1.000000
v -0.803949 2.661650 -1.000000
v -0.803949 2.661650 -0.764615
v -0.803949 4.172341 -0.764615
v -1.000000 4.172341 -1.000000
v -1.000000 2.661650 -1.000000
v -1.000000 4.172341 -0.764615
v -1.000000 2.661650 -0.764615
v 1.001509 2.661650 -0.594487
v 1.001509 2.661650 -0.764615
v 1.001509 4.172341 -0.764615
v 1.001509 4.172341 -0.594487
v 1.093677 2.661650 -0.764615
v 1.093677 4.172341 -0.764615
v -1.092168 2.661650 -0.764615
v -1.092168 2.661650 -0.594487
v 1.093677 2.661650 -0.594487
v 1.093677 4.172341 -0.594487
v -1.092168 4.172341 -0.594487
v -1.092168 4.172341 -0.764615
vt 0.355047 0.545210
vt 0.365917 0.545210
vt 0.365917 0.758579
vt 0.355047 0.758579
vt 0.255033 0.545210
vt 0.267350 0.545210
vt 0.267350 0.758579
vt 0.255033 0.758579
vt 0.444252 0.727017
vt 0.431936 0.727017
vt 0.433837 0.505257
vt 0.442351 0.505257
vt 0.019703 0.701390
vt 0.006653 0.701390
vt 0.006653 0.530744
vt 0.019703 0.530744
vt 0.489322 0.465575
vt 0.476272 0.465575
vt 0.476272 0.252206
vt 0.489322 0.252206
vt 0.255033 0.509582
vt 0.267350 0.509582
vt 0.255033 0.270322
vt 0.255033 0.234694
vt 0.268083 0.234694
vt 0.268083 0.270322
vt 0.105220 0.270334
vt 0.105220 0.234706
vt 0.117537 0.234706
vt 0.117537 0.270334
vt 0.355047 0.509582
vt 0.365917 0.509582
vt 0.017523 0.234706
vt 0.006653 0.234706
vt 0.006653 0.191739
vt 0.017523 0.191739
vt 0.117537 0.701390
vt 0.104487 0.701390
vt 0.104487 0.530744
vt 0.117537 0.530744
vt 0.017523 0.270334
vt 0.006653 0.270334
vt 0.143893 0.704202
vt 0.130843 0.704202
vt 0.130843 0.533556
vt 0.143893 0.533556
vt 0.228677 0.270330
vt 0.241727 0.270330
vt 0.241727 0.483698
vt 0.228677 0.483698
vt 0.143893 0.725352
vt 0.130843 0.725352
vt 0.241727 0.704202
vt 0.228677 0.704202
vt 0.228677 0.533556
vt 0.241727 0.533556
vt 0.143893 0.509590
vt 0.130843 0.509590
vt 0.130843 0.270330
vt 0.130843 0.234702
vt 0.143893 0.234702
vt 0.143893 0.270330
vt 0.352867 0.270322
vt 0.352867 0.234694
vt 0.365917 0.234694
vt 0.365917 0.270322
vt 0.228677 0.725352
vt 0.019703 0.725356
vt 0.104487 0.725356
vt 0.019703 0.509594
vt 0.104487 0.509594
vt 0.228677 0.234702
vt 0.228677 0.509590
vt 0.241727 0.234702
vt 0.404846 0.752905
vt 0.415715 0.752905
vt 0.415715 0.778299
vt 0.404846 0.778299
vt 0.379223 0.752905
vt 0.391540 0.752905
vt 0.391540 0.778299
vt 0.379223 0.778299
vt 0.255033 0.784471
vt 0.265903 0.784471
vt 0.265903 0.809864
vt 0.255033 0.809864
vt 0.094721 0.751248
vt 0.107038 0.751248
vt 0.107038 0.776641
vt 0.094721 0.776641
vt 0.143160 0.964612
vt 0.130843 0.964612
vt 0.130843 0.751243
vt 0.143160 0.751243
vt 0.143893 0.483698
vt 0.130843 0.483698
vt 0.268083 0.483691
vt 0.255033 0.483691
vt 0.229003 0.751243
vt 0.239872 0.751243
vt 0.239872 0.964612
vt 0.229003 0.964612
vt 0.017523 0.483703
vt 0.006653 0.483703
vt 0.156466 0.751243
vt 0.168783 0.751243
vt 0.168783 0.964612
vt 0.156466 0.964612
vt 0.365917 0.483691
vt 0.352867 0.483691
vt 0.476272 0.012946
vt 0.489322 0.012946
vt 0.489322 0.226314
vt 0.476272 0.226314
vt 0.470609 0.957886
vt 0.457558 0.957886
vt 0.457558 0.744518
vt 0.470609 0.744518
vt 0.204827 0.751243
vt 0.215697 0.751243
vt 0.215697 0.964612
vt 0.204827 0.964612
vt 0.117537 0.483703
vt 0.105220 0.483703
vt 0.457558 0.505257
vt 0.470609 0.505257
vt 0.470609 0.718626
vt 0.457558 0.718626
vt 0.309171 0.802023
vt 0.300657 0.802023
vt 0.300657 0.784471
vt 0.309171 0.784471
vt 0.329990 0.802023
vt 0.322477 0.802023
vt 0.322477 0.784471
vt 0.329990 0.784471
vt 0.107122 0.012946
vt 0.115635 0.012946
vt 0.132858 0.012946
vt 0.141878 0.012946
vt 0.405579 0.505257
vt 0.418630 0.505257
vt 0.418630 0.548224
vt 0.405579 0.548224
vt 0.352867 0.191727
vt 0.365917 0.191727
vt 0.392273 0.727014
vt 0.379223 0.727014
vt 0.381238 0.505257
vt 0.390258 0.505257
vt 0.365917 0.028778
vt 0.352867 0.028778
vt 0.354882 0.012946
vt 0.363902 0.012946
vt 0.287351 0.784471
vt 0.287351 0.805621
vt 0.279209 0.802355
vt 0.279209 0.787736
vt 0.462966 0.217663
vt 0.462966 0.238814
vt 0.379223 0.238814
vt 0.379223 0.217663
vt 0.081415 0.794214
vt 0.070546 0.794214
vt 0.070546 0.751248
vt 0.081415 0.751248
vt 0.405579 0.711174
vt 0.418630 0.711174
vt 0.416615 0.727006
vt 0.407594 0.727006
vt 0.191521 0.761186
vt 0.182089 0.761186
vt 0.182089 0.751243
vt 0.191521 0.751243
vt 0.006653 0.028789
vt 0.017522 0.028789
vt 0.008331 0.012946
vt 0.015844 0.012946
vt 0.462966 0.479366
vt 0.379223 0.479366
vt 0.379223 0.284591
vt 0.462966 0.284591
vt 0.483915 0.731125
vt 0.483915 0.709975
vt 0.493347 0.709975
vt 0.493347 0.731125
vt 0.191521 0.955961
vt 0.191521 0.977111
vt 0.182089 0.977111
vt 0.182089 0.955961
vt 0.057240 0.751248
vt 0.057240 0.914197
vt 0.052130 0.914197
vt 0.052130 0.751248
vt 0.483915 0.515201
vt 0.493347 0.515201
vt 0.379223 0.022889
vt 0.462966 0.022889
vt 0.016085 0.751248
vt 0.016085 0.914197
vt 0.006653 0.914197
vt 0.006653 0.751248
vt 0.029391 0.914197
vt 0.029391 0.751248
vt 0.038824 0.751248
vt 0.038824 0.914197
vt 0.191521 0.987054
vt 0.182089 0.987054
vt 0.379223 0.012946
vt 0.462966 0.012946
vt 0.493347 0.741069
vt 0.483915 0.741069
vt 0.483915 0.505257
vt 0.493347 0.505257
vt 0.462966 0.248757
vt 0.379223 0.248757
vt 0.379223 0.274648
vt 0.462966 0.274648
vn 0.0000 0.0000 1.0000
vn 0.0000 0.0177 0.9998
vn 0.0000 -1.0000 0.0000
vn 1.0000 0.0000 0.0000
vn -1.0000 0.0000 0.0000
vn 0.0000 0.0000 -1.0000
vn 0.0000 1.0000 0.0000
vn 0.0000 0.0177 -0.9998
vn 0.9999 0.0167 0.0000
vn -0.9999 0.0167 0.0000
vn -0.9792 0.2027 0.0000
vn 0.0000 0.2412 0.9705
vn 0.9792 0.2027 0.0000
vn 0.0000 0.2412 -0.9705
usemtl wood
s off
f 14/1/1 1/2/1 40/3/1 39/4/1
f 5/5/1 13/6/1 38/7/1 37/8/1
f 28/9/2 17/10/2 55/11/2 56/12/2
f 29/13/3 13/14/3 14/15/3 31/16/3
f 9/17/4 32/18/4 48/19/4 33/20/4
f 5/5/1 6/21/1 16/22/1 13/6/1
f 1/23/5 2/24/5 22/25/5 23/26/5
f 10/27/6 11/28/6 8/29/6 7/30/6
f 14/1/1 15/31/1 2/32/1 1/2/1
f 12/33/6 4/34/6 66/35/6 62/36/6
f 10/37/3 30/38/3 32/39/3 9/40/3
f 15/31/1 14/1/1 13/6/1 16/22/1
f 11/28/6 10/27/6 9/41/6 12/33/6
f 3/42/6 4/34/6 12/33/6 9/41/6
f 25/43/7 15/44/7 16/45/7 27/46/7
f 20/47/4 5/48/4 37/49/4 41/50/4
f 25/43/7 22/51/7 2/52/7 15/44/7
f 12/53/7 26/54/7 28/55/7 11/56/7
f 18/57/7 27/46/7 16/45/7 6/58/7
f 7/59/4 8/60/4 17/61/4 19/62/4
f 24/63/5 21/64/5 4/65/5 3/66/5
f 22/51/7 25/43/7 26/54/7 21/67/7
f 20/68/3 29/13/3 30/38/3 19/69/3
f 25/43/7 27/46/7 28/55/7 26/54/7
f 29/13/3 31/16/3 32/39/3 30/38/3
f 31/16/3 23/70/3 24/71/3 32/39/3
f 18/72/4 20/47/4 19/62/4 17/61/4
f 27/46/7 18/57/7 17/73/7 28/55/7
f 21/64/5 24/63/5 23/26/5 22/25/5
f 20/47/4 18/72/4 6/74/4 5/48/4
f 46/75/3 45/76/3 39/77/3 40/78/3
f 35/79/3 36/80/3 44/81/3 43/82/3
f 34/83/3 33/84/3 48/85/3 47/86/3
f 42/87/3 41/88/3 37/89/3 38/90/3
f 29/91/6 20/92/6 41/93/6 42/94/6
f 7/59/4 19/62/4 44/95/4 36/96/4
f 1/23/5 23/26/5 46/97/5 40/98/5
f 23/99/6 31/100/6 45/101/6 46/102/6
f 3/42/6 9/41/6 33/103/6 34/104/6
f 19/105/1 30/106/1 43/107/1 44/108/1
f 24/63/5 3/66/5 34/109/5 47/110/5
f 30/111/5 10/112/5 35/113/5 43/114/5
f 31/115/4 14/116/4 39/117/4 45/118/4
f 32/119/1 24/120/1 47/121/1 48/122/1
f 10/27/6 7/30/6 36/123/6 35/124/6
f 13/125/5 29/126/5 42/127/5 38/128/5
f 52/129/7 51/130/7 56/131/7 55/132/7
f 50/133/7 49/134/7 54/135/7 53/136/7
f 8/29/8 11/28/8 51/137/8 52/138/8
f 17/61/9 8/60/9 52/139/9 55/140/9
f 26/141/4 12/142/4 62/143/4 63/144/4
f 4/65/5 21/64/5 68/145/5 66/146/5
f 11/147/10 28/148/10 56/149/10 51/150/10
f 65/151/11 67/152/11 54/153/11 49/154/11
f 67/155/12 64/156/12 53/157/12 54/158/12
f 59/159/1 58/160/1 57/161/1 60/162/1
f 21/163/1 26/164/1 63/165/1 68/166/1
f 64/167/13 61/168/13 50/169/13 53/170/13
f 71/171/7 72/172/7 78/173/7 74/174/7
f 67/152/5 65/151/5 66/146/5 68/145/5
f 65/175/6 61/176/6 62/36/6 66/35/6
f 61/168/4 64/167/4 63/144/4 62/143/4
f 61/176/14 65/175/14 49/177/14 50/178/14
f 63/179/6 64/180/6 71/181/6 70/182/6
f 68/183/3 63/184/3 60/185/3 57/186/3
f 64/187/7 67/188/7 58/189/7 59/190/7
f 67/191/6 68/192/6 75/193/6 80/194/6
f 60/185/3 63/184/3 70/195/3 69/196/3
f 59/159/1 60/162/1 69/197/1 72/198/1
f 64/187/7 59/190/7 72/172/7 71/171/7
f 80/199/5 75/200/5 76/201/5 79/202/5
f 73/203/4 74/204/4 78/205/4 77/206/4
f 58/189/7 67/188/7 80/207/7 79/208/7
f 72/198/1 69/197/1 77/209/1 78/210/1
f 68/183/3 57/186/3 76/211/3 75/212/3
f 69/196/3 70/195/3 73/213/3 77/214/3
f 57/161/1 58/160/1 79/215/1 76/216/1
f 70/182/6 71/181/6 74/217/6 73/218/6
